<svg width="24.000000" height="24.000000" viewBox="0 0 24 24" fill="none" xmlns="http://www.w3.org/2000/svg" xmlns:xlink="http://www.w3.org/1999/xlink">
	<desc>
			Created with Pixso.
	</desc>
	<defs>
		<clipPath id="clip1_14">
			<rect rx="0.000000" width="23.000000" height="23.000000" transform="translate(0.500000 0.500000)" fill="white" fill-opacity="0"/>
		</clipPath>
	</defs>
	<rect rx="0.000000" width="23.000000" height="23.000000" transform="translate(0.500000 0.500000)" fill="#FFFFFF" fill-opacity="0"/>
	<g clip-path="url(#clip1_14)">
		<path d="M23.97 7.05C23.92 5.78 23.71 4.9 23.41 4.14C23.11 3.33 22.64 2.61 22.03 2.01C21.43 1.4 20.7 0.93 19.9 0.63C19.14 0.33 18.27 0.13 16.99 0.07C15.71 0.01 15.3 0 12.04 0C8.78 0 8.37 0.01 7.09 0.07C5.82 0.12 4.94 0.33 4.18 0.62C3.38 0.93 2.65 1.4 2.05 2.01C1.44 2.61 0.97 3.34 0.67 4.13C0.37 4.9 0.17 5.77 0.11 7.05C0.05 8.33 0.04 8.74 0.04 12C0.04 15.26 0.05 15.66 0.11 16.94C0.16 18.22 0.37 19.1 0.67 19.86C0.97 20.66 1.44 21.38 2.05 21.98C2.65 22.59 3.38 23.07 4.18 23.37C4.94 23.66 5.81 23.87 7.09 23.92C8.37 23.98 8.78 24 12.03 24C15.29 24 15.7 23.98 16.98 23.92C18.26 23.87 19.13 23.66 19.89 23.37C21.51 22.74 22.78 21.47 23.4 19.86C23.7 19.09 23.91 18.22 23.96 16.94C24.02 15.66 24.03 15.26 24.03 12C24.03 8.74 24.03 8.33 23.97 7.05ZM21.81 16.85C21.76 18.02 21.56 18.65 21.4 19.08C20.99 20.12 20.16 20.95 19.12 21.36C18.7 21.52 18.06 21.72 16.89 21.77C15.63 21.82 15.25 21.84 12.04 21.84C8.84 21.84 8.46 21.82 7.2 21.77C6.02 21.72 5.39 21.52 4.97 21.36C4.45 21.16 3.98 20.86 3.59 20.46C3.19 20.07 2.89 19.6 2.7 19.08C2.53 18.66 2.33 18.02 2.28 16.85C2.23 15.59 2.21 15.21 2.21 12.01C2.21 8.8 2.23 8.42 2.28 7.16C2.33 5.99 2.53 5.35 2.7 4.93C2.89 4.41 3.19 3.94 3.6 3.55C3.98 3.15 4.45 2.85 4.97 2.66C5.4 2.49 6.03 2.3 7.2 2.25C8.47 2.19 8.85 2.18 12.05 2.18C15.26 2.18 15.64 2.19 16.9 2.25C18.07 2.3 18.7 2.49 19.12 2.66C19.64 2.85 20.12 3.15 20.5 3.55C20.9 3.94 21.21 4.41 21.4 4.93C21.56 5.35 21.76 5.99 21.81 7.16C21.87 8.42 21.88 8.8 21.88 12.01C21.88 15.21 21.87 15.58 21.81 16.85Z" fill="#FFFFFF" fill-opacity="1.000000" fill-rule="nonzero"/>
		<path d="M12.04 5.83C8.64 5.83 5.87 8.59 5.87 12C5.87 15.4 8.64 18.16 12.04 18.16C15.44 18.16 18.2 15.4 18.2 12C18.2 8.59 15.44 5.83 12.04 5.83ZM12.04 16C9.83 16 8.04 14.21 8.04 12C8.04 9.79 9.83 8 12.04 8C14.25 8 16.04 9.79 16.04 12C16.04 14.21 14.25 16 12.04 16Z" fill="#FFFFFF" fill-opacity="1.000000" fill-rule="nonzero"/>
		<path d="M19.89 5.59C19.89 6.38 19.24 7.03 18.45 7.03C17.65 7.03 17.01 6.38 17.01 5.59C17.01 4.79 17.65 4.15 18.45 4.15C19.24 4.15 19.89 4.79 19.89 5.59Z" fill="#FFFFFF" fill-opacity="1.000000" fill-rule="nonzero"/>
	</g>
</svg>
