<svg width="24.000000" height="24.000000" viewBox="0 0 24 24" fill="none" xmlns="http://www.w3.org/2000/svg" xmlns:xlink="http://www.w3.org/1999/xlink">
	<desc>
			Created with Pixso.
	</desc>
	<defs>
		<clipPath id="clip1_10">
			<rect rx="0.000000" width="23.000000" height="23.000000" transform="translate(0.500000 0.500000)" fill="white" fill-opacity="0"/>
		</clipPath>
	</defs>
	<rect rx="0.000000" width="23.000000" height="23.000000" transform="translate(0.500000 0.500000)" fill="#FFFFFF" fill-opacity="0"/>
	<g clip-path="url(#clip1_10)">
		<path d="M12.32 0C5.74 0 2.25 4.21 2.25 8.81C2.25 10.94 3.44 13.6 5.34 14.44C5.89 14.68 5.82 14.39 6.28 12.6C6.32 12.45 6.3 12.32 6.18 12.18C3.46 9.03 5.65 2.54 11.93 2.54C21.03 2.54 19.33 15.13 13.51 15.13C12.02 15.13 10.9 13.95 11.25 12.5C11.68 10.76 12.52 8.9 12.52 7.65C12.52 4.5 7.83 4.97 7.83 9.14C7.83 10.43 8.29 11.3 8.29 11.3C8.29 11.3 6.78 17.39 6.5 18.53C6.02 20.46 6.56 23.58 6.61 23.85C6.64 24 6.8 24.05 6.9 23.92C7.04 23.73 8.87 21.13 9.38 19.25C9.57 18.56 10.33 15.78 10.33 15.78C10.83 16.69 12.28 17.45 13.83 17.45C18.42 17.45 21.74 13.41 21.74 8.4C21.73 3.59 17.62 0 12.32 0L12.32 0Z" fill="#FFFFFF" fill-opacity="1.000000" fill-rule="nonzero"/>
	</g>
</svg>
